<svg width="20" height="15" viewBox="0 0 20 15" fill="none" xmlns="http://www.w3.org/2000/svg">
    <path d="M1.3356 9.60738C1.65116 10.9826 1.87046 11.7167 2.10834 12.4489C2.50419 13.6673 3.7683 14.6326 5.10861 14.7404C5.91406 14.8051 8.46644 14.8519 9.95059 14.8519C11.4347 14.8519 13.9648 14.8051 14.7417 14.7404C16.0325 14.6326 16.8536 13.6673 16.69 12.4489C16.5919 11.7167 16.4737 10.9819 16.1582 9.60738C15.8426 8.23288 15.6237 7.49768 15.3858 6.76545C14.9896 5.54743 13.7258 4.58178 12.3855 4.47436C11.5801 4.40969 9.02769 4.36286 7.54317 4.36286C7.22352 4.36286 6.8548 4.36286 6.46527 4.3688C5.98765 4.37401 5.50892 4.03428 5.36619 3.59383V3.58937C5.18443 3.02998 4.60423 2.58581 3.99094 2.53749C3.61925 2.50776 3.11822 2.48657 2.43691 2.48657C1.75561 2.48657 1.26275 2.50776 0.906669 2.53749C0.311224 2.58693 -0.065296 3.02998 0.00941333 3.58937C0.0547593 3.92389 0.279259 5.00588 0.424218 5.63663L1.3356 9.60738Z" fill="black"/>
    <path d="M17.1042 2.38661C16.3299 2.30893 13.8002 2.2528 12.3157 2.2528C11.9957 2.2528 11.6262 2.2554 11.2356 2.26024C10.7554 2.26618 10.4391 1.8603 10.5089 1.33102V1.32544C10.5959 0.654172 10.229 0.121914 9.63732 0.0617003C9.28199 0.0245314 8.7895 0 8.10819 0C7.42689 0 6.92362 0.0260182 6.55305 0.0617003C5.93679 0.120799 5.34692 0.653057 5.15327 1.32544C5.11313 1.46408 5.05217 1.70828 4.98267 1.99968C5.52347 2.28588 5.955 2.76722 6.14085 3.33776V3.34334C6.17095 3.43589 6.32409 3.55334 6.45344 3.55334C6.85263 3.54925 7.218 3.54702 7.53914 3.54702C8.96085 3.54702 11.5794 3.59125 12.4454 3.66113C13.2479 3.72543 14.0593 4.04323 14.7298 4.55318C15.4074 5.07094 15.914 5.76637 16.1564 6.51161C16.4165 7.31185 16.6396 8.0779 16.9484 9.42304C17.2436 10.7098 17.3744 11.4673 17.4792 12.233C17.5127 12.1431 17.5431 12.0513 17.5699 11.9587C17.8234 11.0797 18.0587 10.1976 18.404 8.54735C18.7493 6.89705 18.8834 6.01466 18.9987 5.13562C19.1927 3.67488 18.3928 2.51596 17.1042 2.38661Z" fill="black"/>
    </svg>
    