<svg width="14" height="20" viewBox="0 0 8 14" fill="none" xmlns="http://www.w3.org/2000/svg">
<path d="M7.05905 0.333726C7.24247 0.329391 7.4226 0.386517 7.57438 0.49725C7.72616 0.607982 7.84205 0.766847 7.90595 0.951617C7.96985 1.13639 7.97858 1.33793 7.93092 1.52827C7.88326 1.71862 7.78159 1.8882 7.64003 2.01359L2.23884 6.98483L7.64003 11.9543C7.73795 12.0316 7.81996 12.1298 7.88092 12.2428C7.94187 12.3557 7.98047 12.481 7.99428 12.6107C8.00809 12.7404 7.99683 12.8718 7.96119 12.9966C7.92555 13.1214 7.86631 13.237 7.78717 13.3361C7.70804 13.4352 7.61071 13.5156 7.50129 13.5724C7.39187 13.6292 7.27271 13.6611 7.15127 13.6661C7.02984 13.6712 6.90875 13.6493 6.79558 13.6017C6.68241 13.5541 6.5796 13.482 6.49359 13.3897L0.309722 7.70532C0.212612 7.61628 0.134632 7.50577 0.0811605 7.38123C0.0276892 7.25668 0 7.12111 0 6.98396C0 6.8468 0.0276892 6.71123 0.0811605 6.58668C0.134632 6.46214 0.212612 6.35152 0.309722 6.26248L6.49359 0.572613C6.64981 0.42354 6.85017 0.339007 7.05905 0.333726Z" fill="#3478F6"/>
</svg>
