<svg width="26" height="26" viewBox="0 0 26 26" fill="none" xmlns="http://www.w3.org/2000/svg">
    <path d="M18.4166 4.0625H11.1366C9.60907 4.0625 8.15741 4.70167 7.12824 5.83917L3.30407 10.0425C1.77657 11.7217 1.77657 14.2783 3.30407 15.9575L7.12824 20.1608C8.15741 21.2875 9.60907 21.9375 11.1366 21.9375H18.4166C21.4066 21.9375 23.8332 19.5108 23.8332 16.5208V9.47917C23.8332 6.48917 21.4066 4.0625 18.4166 4.0625ZM17.9074 15.1017C18.2216 15.4158 18.2216 15.9358 17.9074 16.25C17.7449 16.4125 17.5391 16.4883 17.3332 16.4883C17.1274 16.4883 16.9216 16.4125 16.7591 16.25L14.6574 14.1483L12.5557 16.25C12.3932 16.4125 12.1874 16.4883 11.9816 16.4883C11.7757 16.4883 11.5699 16.4125 11.4074 16.25C11.0932 15.9358 11.0932 15.4158 11.4074 15.1017L13.5091 13L11.4074 10.8983C11.0932 10.5842 11.0932 10.0642 11.4074 9.75C11.7216 9.43583 12.2416 9.43583 12.5557 9.75L14.6574 11.8517L16.7591 9.75C17.0732 9.43583 17.5932 9.43583 17.9074 9.75C18.2216 10.0642 18.2216 10.5842 17.9074 10.8983L15.8057 13L17.9074 15.1017Z" fill="white"/>
    </svg>
    