<svg width="41" height="53" viewBox="0 0 41 53" fill="none" xmlns="http://www.w3.org/2000/svg">
<path d="M41 46.3836C41 49.9007 38.1392 52.7615 34.622 52.7615H7.15852C3.64137 52.7615 0.780563 49.9007 0.780563 46.3836V27.1658C0.780563 24.305 2.68215 21.9154 5.25692 21.1077V16.2275C5.25693 7.61144 12.2743 0.594116 20.8903 0.594116C29.5063 0.594116 36.5236 7.61144 36.5236 16.2275V21.1077C39.0984 21.9154 41 24.305 41 27.1658V46.3836ZM18.3661 41.352V41.9578C18.3661 43.3545 19.4935 44.482 20.8903 44.482C22.2871 44.482 23.4145 43.3545 23.4145 41.9578V41.352C25.6863 40.376 27.3018 38.1041 27.3018 35.4789C27.3018 31.945 24.4242 29.0674 20.8903 29.0674C17.3564 29.0674 14.4787 31.945 14.4787 35.4789C14.4787 38.1041 16.0943 40.376 18.3661 41.352ZM31.4752 16.2275C31.4752 10.3881 26.7296 5.64257 20.8903 5.64257C15.051 5.64257 10.3054 10.3881 10.3054 16.2275V20.788H31.4752V16.2275Z" fill="white"/>
<path d="M20.8896 34.1156C21.63 34.1156 22.2527 34.7214 22.2527 35.4787C22.2527 36.2191 21.63 36.8249 20.8896 36.8249C20.1492 36.8249 19.5265 36.2191 19.5265 35.4787C19.5265 34.7214 20.1492 34.1156 20.8896 34.1156Z" fill="white"/>
</svg>
