<svg width="19" height="17" viewBox="0 0 19 17" fill="none" xmlns="http://www.w3.org/2000/svg">
    <path d="M9.5001 12.2146C11.374 12.2146 12.893 10.6955 12.893 8.82163C12.893 6.94777 11.374 5.42871 9.5001 5.42871C7.62624 5.42871 6.10718 6.94777 6.10718 8.82163C6.10718 10.6955 7.62624 12.2146 9.5001 12.2146Z" fill="black"/>
    <path d="M16.9646 2.71435H15.089C14.9629 2.71476 14.8392 2.67981 14.732 2.61348C14.6248 2.54715 14.5383 2.45209 14.4824 2.33909L13.875 1.12511C13.707 0.786182 13.4474 0.501124 13.1256 0.302262C12.8038 0.1034 12.4327 -0.0013084 12.0544 1.23416e-05H6.94599C6.56771 -0.0013084 6.19662 0.1034 5.87482 0.302262C5.55302 0.501124 5.29338 0.786182 5.12535 1.12511L4.51462 2.33909C4.45894 2.45158 4.37298 2.54629 4.2664 2.61258C4.15983 2.67888 4.03687 2.71412 3.91136 2.71435H2.03575C1.49584 2.71435 0.978037 2.92883 0.596259 3.31061C0.214481 3.69239 0 4.21019 0 4.75011V14.2503C0 14.7902 0.214481 15.308 0.596259 15.6898C0.978037 16.0716 1.49584 16.286 2.03575 16.286H16.9646C17.5045 16.286 18.0223 16.0716 18.4041 15.6898C18.7859 15.308 19.0004 14.7902 19.0004 14.2503V4.75011C19.0004 4.21019 18.7859 3.69239 18.4041 3.31061C18.0223 2.92883 17.5045 2.71435 16.9646 2.71435ZM9.50019 13.5717C8.56071 13.5717 7.64232 13.2931 6.86118 12.7712C6.08003 12.2492 5.4712 11.5074 5.11167 10.6394C4.75215 9.77143 4.65808 8.81635 4.84137 7.89492C5.02465 6.97349 5.47705 6.1271 6.14136 5.46279C6.80568 4.79848 7.65206 4.34608 8.57349 4.16279C9.49492 3.97951 10.45 4.07358 11.318 4.4331C12.1859 4.79262 12.9278 5.40146 13.4497 6.1826C13.9717 6.96375 14.2503 7.88213 14.2503 8.82162C14.2488 10.081 13.7479 11.2883 12.8574 12.1789C11.9669 13.0694 10.7595 13.5703 9.50019 13.5717ZM16.286 6.10728C16.1518 6.10728 16.0206 6.06748 15.909 5.99291C15.7974 5.91835 15.7105 5.81237 15.6591 5.68837C15.6077 5.56438 15.5943 5.42794 15.6205 5.29631C15.6467 5.16467 15.7113 5.04376 15.8062 4.94886C15.9011 4.85396 16.022 4.78933 16.1536 4.76314C16.2853 4.73696 16.4217 4.7504 16.5457 4.80176C16.6697 4.85312 16.7757 4.9401 16.8503 5.05169C16.9248 5.16328 16.9646 5.29448 16.9646 5.42869C16.9646 5.60866 16.8931 5.78126 16.7659 5.90852C16.6386 6.03578 16.466 6.10728 16.286 6.10728Z" fill="black"/>
    </svg>
    