<svg width="12" height="12" viewBox="0 0 12 12" fill="none" xmlns="http://www.w3.org/2000/svg">
    <path d="M7.56611 5.95111L11.563 1.95427C12.0114 1.50811 12.0114 0.785428 11.5676 0.336945C11.1214 -0.111538 10.3988 -0.111538 9.95028 0.332298L9.94795 0.334622L5.95111 4.33146L1.95195 0.336945C1.50579 -0.109214 0.780778 -0.109214 0.334619 0.336945C-0.11154 0.783104 -0.11154 1.50811 0.334619 1.95427L4.33146 5.95111L0.334619 9.94796C-0.11154 10.3941 -0.11154 11.1191 0.334619 11.5653C0.780778 12.0114 1.50579 12.0114 1.95195 11.5653L5.94879 7.56844L9.94563 11.5653C10.3918 12.0114 11.1168 12.0114 11.563 11.5653C12.0091 11.1191 12.0091 10.3941 11.563 9.94796L7.56611 5.95111Z" fill="#3478F6"/>
    </svg>
    