<svg width="20" height="19" viewBox="0 0 20 19" fill="none" xmlns="http://www.w3.org/2000/svg">
    <path d="M19.6484 4.07143V13.8429C19.6484 15.0154 18.9753 16.0251 17.9982 16.5137C18.009 16.3509 18.0199 16.188 18.0199 16.0143V6.24286C18.0199 3.70229 15.9462 1.62857 13.4056 1.62857H4.31815C4.81758 0.662286 5.81644 0 6.97815 0H15.577C17.8244 0 19.6484 1.824 19.6484 4.07143ZM13.4056 3.25714H3.63415C1.98712 3.25714 0.648438 4.59583 0.648438 6.24286V16.0143C0.648438 17.6613 1.98712 19 3.63415 19H13.4056C15.0526 19 16.3913 17.6613 16.3913 16.0143V6.24286C16.3913 4.59583 15.0526 3.25714 13.4056 3.25714Z" fill="#3B7CE2"/>
    </svg>
    