<svg width="15" height="19" viewBox="0 0 15 19" fill="none" xmlns="http://www.w3.org/2000/svg">
    <path d="M14.8276 15.1558C14.5856 13.9958 13.6819 13.058 12.5245 12.7665C11.7328 12.5679 10.9372 12.668 10.2399 13.0487L9.34659 11.029L12.7649 2.82562C12.8678 2.57862 12.9196 2.31845 12.9196 2.05212C12.9196 1.37838 12.5848 0.752945 12.0243 0.379149L11.5557 0.066804C11.4583 0.0014926 11.337 -0.0170618 11.2256 0.0161506C11.1135 0.0486207 11.0215 0.129035 10.9744 0.236094L7.77366 7.47279L4.57284 0.236131C4.52567 0.129073 4.43368 0.0486579 4.32158 0.0161877C4.20947 -0.0170618 4.08809 0.0014926 3.99146 0.0668412L3.52296 0.379186C2.96243 0.752945 2.62767 1.37838 2.62767 2.05212C2.62767 2.31845 2.67948 2.57859 2.7823 2.82562L6.20054 11.0297L5.30655 13.0491C4.84655 12.7978 4.33861 12.6668 3.81519 12.6668C2.0687 12.6668 0.648438 14.0874 0.648438 15.8334C0.648438 17.5794 2.06866 19 3.81519 19C5.56168 19 6.98194 17.5794 6.98194 15.8334C6.98194 14.6625 7.36513 13.8065 7.7731 13.2213C8.16972 13.789 8.54018 14.6018 8.56378 15.7205C8.60089 17.4716 9.91906 18.9099 11.5635 18.9957C11.6207 18.9984 11.6772 19 11.7328 19C12.6614 19 13.5303 18.6019 14.138 17.8925C14.7828 17.14 15.0341 16.1423 14.8276 15.1558ZM3.81508 17.4167C2.94224 17.4167 2.23176 16.7066 2.23176 15.8334C2.23176 14.9602 2.94224 14.2501 3.81508 14.2501C4.68791 14.2501 5.3984 14.9602 5.3984 15.8334C5.3984 16.7066 4.68791 17.4167 3.81508 17.4167ZM7.77332 11.8752C7.33652 11.8752 6.98168 11.5199 6.98168 11.0835C6.98168 10.6471 7.33655 10.2919 7.77332 10.2919C8.21013 10.2919 8.56496 10.6471 8.56496 11.0835C8.56496 11.5199 8.21013 11.8752 7.77332 11.8752ZM11.7316 17.4167C10.8588 17.4167 10.1483 16.7066 10.1483 15.8334C10.1483 14.9602 10.8588 14.2501 11.7316 14.2501C12.6044 14.2501 13.3149 14.9602 13.3149 15.8334C13.3149 16.7066 12.6044 17.4167 11.7316 17.4167Z" fill="#3B7CE2"/>
    </svg>
    