<svg width="16" height="19" viewBox="0 0 16 19" fill="none" xmlns="http://www.w3.org/2000/svg">
    <path fill-rule="evenodd" clip-rule="evenodd" d="M6.19458 0C5.49557 0 4.92891 0.566661 4.92891 1.26568C4.92891 1.61518 4.64557 1.89852 4.29607 1.89852H4.19059H1.34281C0.818557 1.89852 0.393555 2.32352 0.393555 2.84778C0.393555 3.37204 0.818557 3.79704 1.34281 3.79704H4.19059H4.29607H11.6777H11.6792H11.7847H14.6325C15.1567 3.79704 15.5817 3.37204 15.5817 2.84778C15.5817 2.32352 15.1567 1.89852 14.6325 1.89852H11.6785C11.3293 1.8981 11.0463 1.61494 11.0463 1.26568C11.0463 0.566661 10.4797 0 9.78069 0H6.19458Z" fill="#3B7CE2"/>
    <path fill-rule="evenodd" clip-rule="evenodd" d="M2.29228 5.71045C2.02682 5.71045 1.77349 5.82161 1.59374 6.01696C1.41399 6.2123 1.32425 6.474 1.3463 6.73854L2.07795 15.5184C2.24195 17.4864 3.88708 19.0001 5.86187 19.0001H10.1138C12.0886 19.0001 13.7337 17.4864 13.8977 15.5184L14.6293 6.73854C14.6515 6.474 14.5617 6.2123 14.382 6.01696C14.2022 5.82161 13.9489 5.71045 13.6834 5.71045H2.29228Z" fill="#3B7CE2"/>
    </svg>
    