<svg width="3" height="12" viewBox="0 0 3 12" fill="none" xmlns="http://www.w3.org/2000/svg">
<path d="M0 6.00009C0 6.76348 0.621231 7.38471 1.38462 7.38471C2.148 7.38471 2.76923 6.76348 2.76923 6.00009C2.76923 5.23671 2.148 4.61548 1.38462 4.61548C0.621231 4.61548 0 5.23671 0 6.00009Z" fill="#3478F6"/>
<path d="M0 10.6153C0 11.3787 0.621231 11.9999 1.38462 11.9999C2.148 11.9999 2.76923 11.3787 2.76923 10.6153C2.76923 9.85194 2.148 9.23071 1.38462 9.23071C0.621231 9.23071 0 9.85194 0 10.6153Z" fill="#3478F6"/>
<path d="M0 1.38462C0 2.148 0.621231 2.76923 1.38462 2.76923C2.148 2.76923 2.76923 2.148 2.76923 1.38462C2.76923 0.621231 2.148 0 1.38462 0C0.621231 0 0 0.621231 0 1.38462Z" fill="#3478F6"/>
</svg>
