<svg width="20" height="19" viewBox="0 0 20 19" fill="none" xmlns="http://www.w3.org/2000/svg">
    <path d="M6.88329 2.7179C6.45836 2.7179 6.11383 2.37375 6.11383 1.94844V0.769458C6.11383 0.344152 6.45836 0 6.88329 0C7.30822 0 7.65275 0.344152 7.65275 0.769458V1.94844C7.65275 2.37375 7.30822 2.7179 6.88329 2.7179Z" fill="#3B7CE2"/>
    <path d="M6.88329 2.7179C6.45836 2.7179 6.11383 2.37375 6.11383 1.94844V0.769458C6.11383 0.344152 6.45836 0 6.88329 0C7.30822 0 7.65275 0.344152 7.65275 0.769458V1.94844C7.65275 2.37375 7.30822 2.7179 6.88329 2.7179Z" fill="#3B7CE2"/>
    <path d="M2.52937 7.07163H1.35076C0.925827 7.07163 0.581299 6.72748 0.581299 6.30217C0.581299 5.87687 0.925827 5.53271 1.35076 5.53271H2.52937C2.9543 5.53271 3.29882 5.87687 3.29882 6.30217C3.29882 6.72748 2.9543 7.07163 2.52937 7.07163Z" fill="#3B7CE2"/>
    <path d="M2.52937 7.07163H1.35076C0.925827 7.07163 0.581299 6.72748 0.581299 6.30217C0.581299 5.87687 0.925827 5.53271 1.35076 5.53271H2.52937C2.9543 5.53271 3.29882 5.87687 3.29882 6.30217C3.29882 6.72748 2.9543 7.07163 2.52937 7.07163Z" fill="#3B7CE2"/>
    <path d="M3.26038 3.76755L2.42742 2.93422C2.12685 2.63365 2.12685 2.14672 2.42742 1.84615C2.72799 1.54559 3.21567 1.54559 3.51549 1.84615L4.34844 2.67948C4.64901 2.98005 4.64901 3.46698 4.34844 3.76755C4.04825 4.06773 3.56058 4.0685 3.26038 3.76755Z" fill="#3B7CE2"/>
    <path d="M3.26038 3.76755L2.42742 2.93422C2.12685 2.63365 2.12685 2.14672 2.42742 1.84615C2.72799 1.54559 3.21567 1.54559 3.51549 1.84615L4.34844 2.67948C4.64901 2.98005 4.64901 3.46698 4.34844 3.76755C4.04825 4.06773 3.56058 4.0685 3.26038 3.76755Z" fill="#3B7CE2"/>
    <path d="M9.4186 3.76755C9.11803 3.46698 9.11803 2.98005 9.4186 2.67948L10.2519 1.84615C10.5525 1.54559 11.0394 1.54559 11.34 1.84615C11.6406 2.14672 11.6406 2.63365 11.34 2.93422L10.5067 3.76755C10.2061 4.06811 9.71918 4.06813 9.4186 3.76755Z" fill="#3B7CE2"/>
    <path d="M2.42742 10.7589C2.12685 10.4583 2.12685 9.97139 2.42742 9.67082L3.26038 8.83749C3.5602 8.53692 4.04787 8.53692 4.34844 8.83749C4.64901 9.13806 4.64901 9.62498 4.34844 9.92555L3.51549 10.7589C3.21568 11.0594 2.72801 11.0595 2.42742 10.7589Z" fill="#3B7CE2"/>
    <path d="M9.4186 3.76755C9.11803 3.46698 9.11803 2.98005 9.4186 2.67948L10.2519 1.84615C10.5525 1.54559 11.0394 1.54559 11.34 1.84615C11.6406 2.14672 11.6406 2.63365 11.34 2.93422L10.5067 3.76755C10.2061 4.06811 9.71918 4.06813 9.4186 3.76755Z" fill="#3B7CE2"/>
    <path d="M2.42742 10.7589C2.12685 10.4583 2.12685 9.97139 2.42742 9.67082L3.26038 8.83749C3.5602 8.53692 4.04787 8.53692 4.34844 8.83749C4.64901 9.13806 4.64901 9.62498 4.34844 9.92555L3.51549 10.7589C3.21568 11.0594 2.72801 11.0595 2.42742 10.7589Z" fill="#3B7CE2"/>
    <path d="M18.913 15.0594L9.59489 5.74126C8.69459 4.84097 7.23269 4.84097 6.33239 5.74126C5.43209 6.64147 5.43209 8.10346 6.33239 9.00376L15.6505 18.3219C16.5584 19.2299 18.0204 19.2222 18.913 18.3219C19.8132 17.4293 19.8209 15.9674 18.913 15.0594ZM9.57178 10.0656L7.41735 7.9188C7.11716 7.611 7.11716 7.12633 7.41735 6.82613C7.71736 6.52613 8.20222 6.52613 8.50992 6.82613L10.6567 8.98065L9.57178 10.0656Z" fill="#3B7CE2"/>
    </svg>
    