<svg width="52" height="41" viewBox="0 0 52 41" fill="none" xmlns="http://www.w3.org/2000/svg">
    <path d="M51.1953 14.5559C50.9167 14.0529 50.5081 13.6339 50.0123 13.3428C49.5164 13.0517 48.9515 12.8991 48.3765 12.9009H17.8164C16.786 12.9009 15.7835 13.235 14.9592 13.8532C14.1349 14.4714 13.5334 15.3403 13.2449 16.3294L7.19598 37.0684C6.87754 38.1602 6.21358 39.1192 5.30377 39.8015C4.39397 40.4839 3.28739 40.8527 2.15015 40.8527H40.5815C41.719 40.8527 42.8258 40.4838 43.7358 39.8013C44.6457 39.1188 45.3098 38.1596 45.6283 37.0676L51.4352 17.1591C51.5703 16.7311 51.6186 16.2803 51.5774 15.8333C51.5363 15.3863 51.4064 14.952 51.1953 14.5559Z" fill="#3477F6"/>
    <path d="M5.12808 36.4663L11.1807 15.7283C11.6024 14.2946 12.4759 13.0355 13.6712 12.1386C14.8665 11.2416 16.3195 10.7548 17.8139 10.7507H45.1529V9.67562C45.1529 8.53512 44.6998 7.44133 43.8934 6.63487C43.0869 5.82841 41.9931 5.37535 40.8526 5.37535H24.4639C24.1436 5.37534 23.8272 5.30394 23.5379 5.16632C23.2486 5.02871 22.9936 4.82834 22.7915 4.57979L20.6782 1.98124C20.1748 1.36228 19.5397 0.863287 18.8192 0.520568C18.0987 0.177849 17.3109 1.5935e-05 16.5131 0H4.30028C3.15977 0 2.06598 0.453063 1.25952 1.25952C0.453064 2.06598 0 3.15977 0 4.30028L0 36.5523C0 37.1226 0.226532 37.6695 0.629761 38.0727C1.03299 38.476 1.57989 38.7025 2.15014 38.7025C2.82125 38.7007 3.4738 38.4819 4.01046 38.079C4.54712 37.676 4.93915 37.1103 5.12808 36.4663Z" fill="#3477F6"/>
    </svg>
    