<svg width="13" height="13" viewBox="0 0 13 13" fill="none" xmlns="http://www.w3.org/2000/svg">
    <path fill-rule="evenodd" clip-rule="evenodd" d="M5.3 1.63802e-07H5.2778C4.45652 -6.50286e-06 3.80955 -6.4373e-06 3.28889 0.0425336C2.75771 0.0859336 2.31413 0.176087 1.91103 0.38148C1.25247 0.717034 0.717034 1.25247 0.38148 1.91103C0.176087 2.31413 0.0859336 2.75771 0.0425336 3.28889C-6.4373e-06 3.80955 -6.50286e-06 4.45652 1.63802e-07 5.2778V5.3V7.7V7.7222C-6.50286e-06 8.54347 -6.4373e-06 9.19047 0.0425336 9.71113C0.0859336 10.2423 0.176087 10.6859 0.38148 11.089C0.717034 11.7475 1.25247 12.2829 1.91103 12.6185C2.31413 12.8239 2.75771 12.9141 3.28889 12.9575C3.80955 13 4.45651 13 5.2778 13H5.3H7.7H7.7222C8.54347 13 9.19047 13 9.71113 12.9575C10.2423 12.9141 10.6859 12.8239 11.089 12.6185C11.7475 12.2829 12.2829 11.7475 12.6185 11.089C12.8239 10.6859 12.9141 10.2423 12.9575 9.71113C13 9.19047 13 8.54347 13 7.7222V7.7V5.3V5.2778C13 4.45651 13 3.80954 12.9575 3.28889C12.9141 2.75771 12.8239 2.31413 12.6185 1.91103C12.2829 1.25247 11.7475 0.717034 11.089 0.38148C10.6859 0.176087 10.2423 0.0859336 9.71113 0.0425336C9.19047 -6.4373e-06 8.54347 -6.50286e-06 7.7222 1.63802e-07H7.7H5.3ZM1.03541 9.58113C1.03663 9.59747 1.0379 9.61367 1.03921 9.62967C1.07756 10.099 1.15089 10.3963 1.27249 10.635C1.51217 11.1054 1.89462 11.4878 2.36503 11.7275C2.60366 11.8491 2.90099 11.9225 3.37032 11.9608C3.84549 11.9996 4.45167 12 5.3 12H7.7C8.54833 12 9.15453 11.9996 9.62967 11.9608C10.099 11.9225 10.3963 11.8491 10.635 11.7275C11.1054 11.4878 11.4878 11.1054 11.7275 10.635C11.8491 10.3963 11.9225 10.099 11.9608 9.62967C11.9621 9.61367 11.9633 9.59747 11.9646 9.58113L11.5415 9.1672L11.5272 9.1532C11.2777 8.90913 11.0693 8.70527 10.8853 8.5522C10.6931 8.39247 10.4955 8.26007 10.2589 8.1844C9.8954 8.068 9.5046 8.068 9.14113 8.1844C8.90453 8.26007 8.70687 8.39247 8.51473 8.55227C8.33067 8.70527 8.12227 8.9092 7.8728 9.15327L7.86373 9.16213L6.76207 7.88847L6.74833 7.8726C6.50187 7.58767 6.2968 7.35053 6.11387 7.17167C5.92353 6.98553 5.7244 6.82873 5.4786 6.73393C5.10305 6.58907 4.69025 6.57187 4.30392 6.685C4.05111 6.759 3.83962 6.89873 3.63451 7.06833C3.4373 7.2314 3.21319 7.45067 2.94392 7.71407L2.92891 7.7288L1.03541 9.58113ZM9.16667 5.16667C9.90307 5.16667 10.5 4.56971 10.5 3.83333C10.5 3.09695 9.90307 2.5 9.16667 2.5C8.43027 2.5 7.83333 3.09695 7.83333 3.83333C7.83333 4.56971 8.43027 5.16667 9.16667 5.16667Z" fill="white"/>
    </svg>
    