<svg width="20" height="20" viewBox="0 0 20 20" fill="none" xmlns="http://www.w3.org/2000/svg">
    <path fill-rule="evenodd" clip-rule="evenodd" d="M19.6771 9.66666C19.6771 15.0054 15.3491 19.3333 10.0104 19.3333C4.67166 19.3333 0.34375 15.0054 0.34375 9.66666C0.34375 4.32791 4.67166 0 10.0104 0C15.3491 0 19.6771 4.32791 19.6771 9.66666ZM10.0104 8.69999C10.5443 8.69999 10.9771 9.13277 10.9771 9.66666V14.5009C10.9771 15.0347 10.5443 15.4675 10.0104 15.4675C9.47652 15.4675 9.04374 15.0347 9.04374 14.5009V9.66666C9.04374 9.13277 9.47652 8.69999 10.0104 8.69999ZM10.0104 6.76666C10.5443 6.76666 10.9771 6.33386 10.9771 5.79999C10.9771 5.26612 10.5443 4.83333 10.0104 4.83333C9.47652 4.83333 9.04374 5.26612 9.04374 5.79999C9.04374 6.33386 9.47652 6.76666 10.0104 6.76666Z" fill="#3B7CE2"/>
    </svg>
    