<svg width="6" height="10" viewBox="0 0 6 10" fill="none" xmlns="http://www.w3.org/2000/svg">
<path d="M5.29429 0.000172193C5.43186 -0.00307852 5.56695 0.039766 5.68078 0.122815C5.79462 0.205864 5.88154 0.325013 5.92946 0.46359C5.97739 0.602167 5.98393 0.753323 5.94819 0.896081C5.91245 1.03884 5.83619 1.16603 5.73002 1.26007L1.67913 4.9885L5.73002 8.71562C5.80346 8.77361 5.86497 8.84723 5.91069 8.93194C5.9564 9.01666 5.98535 9.11062 5.99571 9.20791C6.00607 9.3052 5.99762 9.40372 5.97089 9.49733C5.94416 9.59095 5.89973 9.67766 5.84038 9.75197C5.78103 9.82628 5.70803 9.88656 5.62597 9.92917C5.5439 9.97177 5.45453 9.9957 5.36346 9.99947C5.27238 10.0032 5.18156 9.98683 5.09668 9.95115C5.01181 9.91547 4.9347 9.86135 4.87019 9.79217L0.232292 5.52887C0.159459 5.46209 0.100974 5.37921 0.0608706 5.2858C0.0207672 5.19239 0 5.09071 0 4.98784C0 4.88497 0.0207672 4.7833 0.0608706 4.68989C0.100974 4.59648 0.159459 4.51351 0.232292 4.44674L4.87019 0.179338C4.98735 0.0675329 5.13763 0.00413327 5.29429 0.000172193Z" fill="white"/>
</svg>
