<svg width="21" height="21" viewBox="0 0 21 21" fill="none" xmlns="http://www.w3.org/2000/svg">
    <path
        d="M19.9499 9.44997H11.55V1.04993C11.55 0.470461 11.0796 0 10.4999 0C9.92043 0 9.44997 0.470461 9.44997 1.04993V9.44997H1.04993C0.470461 9.44997 0 9.92043 0 10.4999C0 11.0796 0.470461 11.55 1.04993 11.55H9.44997V19.9499C9.44997 20.5295 9.92043 21 10.4999 21C11.0796 21 11.55 20.5295 11.55 19.9499V11.55H19.9499C20.5295 11.55 21 11.0796 21 10.4999C21 9.92043 20.5295 9.44997 19.9499 9.44997Z"
        fill="white" />
</svg>
    