<svg width="6" height="10" viewBox="0 0 6 10" fill="none" xmlns="http://www.w3.org/2000/svg">
<path d="M0.705711 0.000172193C0.568144 -0.00307852 0.433053 0.039766 0.319218 0.122815C0.205383 0.205864 0.11846 0.325013 0.070536 0.46359C0.0226117 0.602167 0.0160665 0.753323 0.0518101 0.896081C0.0875538 1.03884 0.16381 1.16603 0.269978 1.26007L4.32087 4.9885L0.269978 8.71562C0.196536 8.77361 0.135031 8.84723 0.0893133 8.93194C0.0435956 9.01666 0.0146507 9.11062 0.00429086 9.20791C-0.00606902 9.3052 0.00237956 9.40372 0.0291074 9.49733C0.0558353 9.59095 0.100266 9.67766 0.159619 9.75197C0.218971 9.82628 0.291966 9.88656 0.374032 9.92917C0.456098 9.97177 0.545468 9.9957 0.636544 9.99947C0.72762 10.0032 0.81844 9.98683 0.903317 9.95115C0.988195 9.91547 1.0653 9.86135 1.12981 9.79217L5.76771 5.52887C5.84054 5.46209 5.89903 5.37921 5.93913 5.2858C5.97923 5.19239 6 5.09071 6 4.98784C6 4.88497 5.97923 4.7833 5.93913 4.68989C5.89903 4.59648 5.84054 4.51351 5.76771 4.44674L1.12981 0.179338C1.01265 0.0675329 0.862371 0.00413327 0.705711 0.000172193Z" fill="white"/>
</svg>
