<svg width="22" height="20" viewBox="0 0 22 20" fill="none" xmlns="http://www.w3.org/2000/svg">
    <path d="M5.57083 15.5997C4.14378 15.5997 2.8744 14.686 2.41346 13.3257L2.38228 13.2232C2.27358 12.863 2.22804 12.5601 2.22804 12.2569V6.1792L0.0655054 13.3979C-0.212626 14.4596 0.421167 15.5604 1.48456 15.8537L15.2685 19.5452C15.4406 19.5897 15.6126 19.6111 15.782 19.6111C16.6698 19.6111 17.481 19.0219 17.7084 18.1535L18.5114 15.5997H5.57083Z" fill="#3B7CE2"/>
    <path d="M8.02232 6.23995C9.00557 6.23995 9.80503 5.44032 9.80503 4.45707C9.80503 3.47382 9.00557 2.67419 8.02232 2.67419C7.03907 2.67419 6.23944 3.47382 6.23944 4.45707C6.23944 5.44032 7.03907 6.23995 8.02232 6.23995Z" fill="#3B7CE2"/>
    <path d="M19.1647 0H5.79354C4.56529 0 3.56506 1.00023 3.56506 2.22864V12.0341C3.56506 13.2625 4.56529 14.2627 5.79354 14.2627H19.1647C20.3931 14.2627 21.3934 13.2625 21.3934 12.0341V2.22864C21.3934 1.00023 20.3931 0 19.1647 0ZM5.79354 1.78288H19.1647C19.4109 1.78288 19.6105 1.9825 19.6105 2.22864V8.55677L16.7946 5.27094C16.4959 4.92067 16.0635 4.73345 15.5991 4.72284C15.1374 4.72545 14.7042 4.93046 14.4083 5.2853L11.0975 9.25912L10.0189 8.18315C9.40924 7.57352 8.41701 7.57352 7.80819 8.18315L5.34794 10.6426V2.22864C5.34794 1.9825 5.54756 1.78288 5.79354 1.78288Z" fill="#3B7CE2"/>
    </svg>
    