<svg width="15" height="15" viewBox="0 0 15 15" fill="none" xmlns="http://www.w3.org/2000/svg">
<path d="M5.66692 11.3279C6.92545 11.3279 8.14797 10.908 9.14086 10.1347L12.8867 13.8805C13.1665 14.1508 13.6124 14.143 13.8827 13.8632C14.1463 13.5902 14.1463 13.1575 13.8827 12.8846L10.1368 9.13872C12.0558 6.66847 11.6089 3.11029 9.13869 1.19131C6.66844 -0.727679 3.11029 -0.280813 1.19131 2.18944C-0.727679 4.65969 -0.280813 8.21787 2.18944 10.1369C3.18394 10.9094 4.40757 11.3285 5.66692 11.3279ZM2.65717 2.65501C4.31943 0.992724 7.01447 0.992694 8.67675 2.65495C10.339 4.3172 10.3391 7.01224 8.67682 8.67453C7.01456 10.3368 4.31952 10.3368 2.65724 8.67459C2.6572 8.67456 2.6572 8.67456 2.65717 8.67453C0.994921 7.02439 0.985128 4.33917 2.63527 2.67691C2.64256 2.66959 2.64985 2.6623 2.65717 2.65501Z" fill="#3478F6"/>
</svg>
