<svg width="22" height="22" viewBox="0 0 22 22" fill="none" xmlns="http://www.w3.org/2000/svg">
    <circle cx="11" cy="11" r="11" fill="#2E6EF2"/>
    <path d="M9.95662 11.921C11.1501 10.7046 13.3308 8.50379 14.5084 7.30124C14.6055 7.18646 14.7305 7.09954 14.8708 7.04922C15.0112 6.99891 15.162 6.98691 15.3083 7.01441C15.4557 7.03653 15.5941 7.10061 15.7073 7.1992C15.8205 7.29779 15.904 7.42693 15.9483 7.57176C16.0007 7.71378 16.0136 7.86774 15.9854 8.01672C15.9572 8.16569 15.8889 8.30378 15.7883 8.41573C15.746 8.46706 15.6988 8.51348 15.6524 8.56074L10.6527 13.6344C10.573 13.7472 10.468 13.8392 10.3466 13.9027C10.2253 13.9663 10.0909 13.9996 9.95447 14C9.81801 14.0004 9.68344 13.968 9.56172 13.9051C9.44001 13.8423 9.33466 13.7509 9.25432 13.6386C8.59436 12.9664 6.93127 11.2991 6.27691 10.622C6.19181 10.5436 6.12334 10.4483 6.07575 10.342C6.02816 10.2356 6.00245 10.1205 6.00017 10.0036C5.99788 9.88676 6.01907 9.7705 6.06247 9.6623C6.10587 9.55409 6.17053 9.45609 6.25249 9.37427C6.33446 9.29246 6.4319 9.22871 6.539 9.1867C6.6461 9.1447 6.76064 9.12533 6.87531 9.13001C6.98998 9.1347 7.10231 9.16334 7.20575 9.21395C7.3092 9.26456 7.40156 9.33616 7.47683 9.4244C7.91734 9.87468 9.35847 11.3242 9.80058 11.7728C9.84857 11.8184 9.89663 11.8631 9.95662 11.921Z" fill="white"/>
    </svg>
    