<svg width="21" height="19" viewBox="0 0 21 19" fill="none" xmlns="http://www.w3.org/2000/svg">
    <path d="M17.8956 11.2359C17.8141 11.3078 17.7649 11.4095 17.7597 11.5181C17.7115 12.5211 17.6291 13.5229 17.5123 14.5216C17.3596 15.8266 16.3043 16.8664 14.9868 17.0136C11.6629 17.3851 8.22427 17.3851 4.90035 17.0136C3.58288 16.8664 2.52752 15.8266 2.37488 14.5216C1.97769 11.1256 1.97769 7.69498 2.37488 4.299C2.52752 2.99386 3.58288 1.95421 4.90035 1.80697C7.09184 1.56204 9.33581 1.47871 11.5615 1.55675C11.7222 1.56238 11.859 1.4401 11.8703 1.27967L11.9189 0.583328C11.9219 0.542331 11.926 0.501771 11.931 0.461665C11.9552 0.269123 11.8217 0.0792648 11.6277 0.0724007C9.32422 -0.00920619 7.00453 0.0768084 4.73533 0.330425C2.74239 0.553157 1.1335 2.1231 0.899197 4.12641C0.488598 7.63704 0.488598 11.1835 0.899197 14.6941C1.1335 16.6974 2.74239 18.2674 4.73533 18.4901C8.16891 18.8739 11.7182 18.8739 15.1519 18.4901C17.1448 18.2674 18.7536 16.6974 18.988 14.6941C19.1554 13.2631 19.2545 11.826 19.2854 10.3878C19.2893 10.2074 19.0679 10.1174 18.9411 10.246C18.6043 10.588 18.2555 10.9182 17.8956 11.2359Z" fill="#3B7CE2"/>
    <path d="M5.85017 12.6787C5.63104 12.6184 5.48114 12.4166 5.48659 12.1894L5.54527 9.74894C5.62929 6.25454 8.48615 3.46549 11.9816 3.46549H13.2271C13.2531 2.84769 13.2887 2.2302 13.3336 1.61321L13.4008 0.691413C13.4418 0.128872 14.0691 -0.185601 14.5443 0.118105C16.5956 1.42882 18.3789 3.1177 19.7991 5.09474L20.2509 5.72364C20.3749 5.89631 20.3749 6.12885 20.2509 6.30152L19.7991 6.93042C18.3789 8.90742 16.5956 10.5963 14.5443 11.907C14.153 12.1571 13.657 11.9881 13.4718 11.6064C13.433 11.5253 13.4079 11.4318 13.4008 11.3337L13.3336 10.412C13.2799 9.67614 13.2398 8.93961 13.2131 8.20268L12.8624 8.14989C10.6276 7.81352 8.41711 8.89197 7.30678 10.8603L6.41304 12.4447C6.37048 12.5201 6.31007 12.5811 6.23991 12.624C6.12604 12.6935 5.98563 12.7161 5.85017 12.6787Z" fill="#3B7CE2"/>
    </svg>
    