<svg width="15" height="19" viewBox="0 0 15 19" fill="none" xmlns="http://www.w3.org/2000/svg">
    <path
        d="M14.6484 16.6771C14.6484 17.9581 13.6065 19 12.3255 19H2.32296C1.04197 19 3.14713e-05 17.9581 3.14713e-05 16.6771V9.67773C3.14713e-05 8.63579 0.692613 7.76547 1.63037 7.47129V5.69386C1.63038 2.55579 4.18617 0 7.32424 0C10.4623 0 13.0181 2.55579 13.0181 5.69386V7.47129C13.9559 7.76547 14.6484 8.63578 14.6484 9.67773V16.6771ZM6.40488 14.8445V15.0651C6.40488 15.5739 6.81552 15.9845 7.32424 15.9845C7.83296 15.9845 8.24359 15.5739 8.24359 15.0651V14.8445C9.071 14.489 9.6594 13.6616 9.6594 12.7055C9.6594 11.4184 8.61132 10.3703 7.32424 10.3703C6.03715 10.3703 4.98908 11.4184 4.98908 12.7055C4.98908 13.6616 5.57748 14.489 6.40488 14.8445ZM11.1794 5.69386C11.1794 3.5671 9.45099 1.83871 7.32424 1.83871C5.19748 1.83871 3.46909 3.5671 3.46909 5.69386V7.35484H11.1794V5.69386Z"
        fill="#3B7CE2" />
    <path
        d="M7.32404 12.209C7.59372 12.209 7.8205 12.4296 7.8205 12.7054C7.8205 12.9751 7.59372 13.1958 7.32404 13.1958C7.05437 13.1958 6.82759 12.9751 6.82759 12.7054C6.82759 12.4296 7.05437 12.209 7.32404 12.209Z"
        fill="#3B7CE2" />
</svg>
    