<svg width="13" height="13" viewBox="0 0 13 13" fill="none" xmlns="http://www.w3.org/2000/svg">
    <path d="M1.92636 0.395909L4.485 2.95455H0.0531818C0.143617 2.4113 0.360192 1.89684 0.685511 1.45248C1.01083 1.00811 1.43583 0.646236 1.92636 0.395909ZM5.36545 2.7912e-07H3.54545C3.43318 2.7912e-07 3.32091 0.00590936 3.20864 0.0118184L6.15136 2.95455H8.32L5.36545 2.7912e-07ZM9.45455 2.7912e-07H7.04364L9.99818 2.95455H12.9468C12.8084 2.1285 12.3815 1.3783 11.7421 0.837332C11.1027 0.29636 10.2921 -0.000332192 9.45455 2.7912e-07ZM5.60294 9.82445L8.55749 8.19945C8.65026 8.14855 8.72765 8.07365 8.78156 7.98258C8.83546 7.89152 8.8639 7.78764 8.8639 7.68182C8.8639 7.57599 8.83546 7.47212 8.78156 7.38105C8.72765 7.28999 8.65026 7.21509 8.55749 7.16418L5.60294 5.53918C5.51297 5.4897 5.41167 5.46452 5.30901 5.46611C5.20635 5.46771 5.10587 5.49602 5.01748 5.54827C4.9291 5.60052 4.85585 5.6749 4.80496 5.76407C4.75407 5.85325 4.7273 5.95414 4.72727 6.05682V9.30682C4.7273 9.40949 4.75407 9.51039 4.80496 9.59956C4.85585 9.68874 4.9291 9.76312 5.01748 9.81536C5.10587 9.86761 5.20635 9.89593 5.30901 9.89752C5.41167 9.89912 5.51297 9.87393 5.60294 9.82445ZM13 4.13636V9.45455C12.9992 10.3946 12.6255 11.296 11.9607 11.9607C11.296 12.6255 10.3946 12.9992 9.45455 13H3.54545C2.60537 12.9992 1.70401 12.6255 1.03927 11.9607C0.37453 11.296 0.000751165 10.3946 0 9.45455V4.13636H13Z" fill="white"/>
    </svg>
    